<svg width="24" height="20" viewBox="0 0 24 20" fill="none" xmlns="http://www.w3.org/2000/svg">
	<path d="M23.9255 17.8695L19.7905 0.749331C19.6636 0.223806 19.1316 -0.102079 18.6123 0.0290577L14.8171 0.948972C14.5653 1.00965 14.3486 1.16916 14.2139 1.39034C14.0792 1.61151 14.0372 1.87769 14.0977 2.13018L18.2317 19.2514C18.2922 19.5038 18.4513 19.7211 18.6719 19.8562C18.8281 19.9511 19.0038 20 19.1814 20C19.2585 20 19.3357 19.9902 19.4108 19.9726L23.206 19.0517C23.7302 18.9235 24.0524 18.3951 23.9255 17.8695Z" fill="#28C7B7" />
	<path d="M5.40509 0.427368H1.50055C0.961723 0.427368 0.524414 0.864818 0.524414 1.406V19.0214C0.524414 19.5626 0.961723 20 1.50055 20H5.40509C5.94392 20 6.38123 19.5626 6.38123 19.0214V1.406C6.38123 0.864818 5.94392 0.427368 5.40509 0.427368Z" fill="#28C7B7" />
	<path d="M13.2144 0H9.30981C8.77099 0 8.33368 0.437449 8.33368 0.978634V18.594C8.33368 19.1352 8.77099 19.5727 9.30981 19.5727H13.2144C13.7532 19.5727 14.1905 19.1352 14.1905 18.594V0.978634C14.1905 0.437449 13.7532 0 13.2144 0Z" fill="#28C7B7" />
</svg>
