<svg width="18" height="24" viewBox="0 0 18 24" fill="none" xmlns="http://www.w3.org/2000/svg">
	<path d="M13.125 11.25H7.875C7.66875 11.25 7.5 11.4187 7.5 11.625V12.375C7.5 12.5813 7.66875 12.75 7.875 12.75H13.125C13.3313 12.75 13.5 12.5813 13.5 12.375V11.625C13.5 11.4187 13.3313 11.25 13.125 11.25ZM13.125 15.75H7.875C7.66875 15.75 7.5 15.9187 7.5 16.125V16.875C7.5 17.0812 7.66875 17.25 7.875 17.25H13.125C13.3313 17.25 13.5 17.0812 13.5 16.875V16.125C13.5 15.9187 13.3313 15.75 13.125 15.75ZM5.25 10.875C4.62656 10.875 4.125 11.3766 4.125 12C4.125 12.6234 4.62656 13.125 5.25 13.125C5.87344 13.125 6.375 12.6234 6.375 12C6.375 11.3766 5.87344 10.875 5.25 10.875ZM5.25 15.375C4.62656 15.375 4.125 15.8766 4.125 16.5C4.125 17.1234 4.62656 17.625 5.25 17.625C5.87344 17.625 6.375 17.1234 6.375 16.5C6.375 15.8766 5.87344 15.375 5.25 15.375ZM15.75 3H12C12 1.34531 10.6547 0 9 0C7.34531 0 6 1.34531 6 3H2.25C1.00781 3 0 4.00781 0 5.25V21.75C0 22.9922 1.00781 24 2.25 24H15.75C16.9922 24 18 22.9922 18 21.75V5.25C18 4.00781 16.9922 3 15.75 3ZM9 2.25C9.4125 2.25 9.75 2.5875 9.75 3C9.75 3.4125 9.4125 3.75 9 3.75C8.5875 3.75 8.25 3.4125 8.25 3C8.25 2.5875 8.5875 2.25 9 2.25ZM15.75 21.375C15.75 21.5812 15.5813 21.75 15.375 21.75H2.625C2.41875 21.75 2.25 21.5812 2.25 21.375V5.625C2.25 5.41875 2.41875 5.25 2.625 5.25H4.5V6.75C4.5 7.1625 4.8375 7.5 5.25 7.5H12.75C13.1625 7.5 13.5 7.1625 13.5 6.75V5.25H15.375C15.5813 5.25 15.75 5.41875 15.75 5.625V21.375Z" fill="#28C7B7" />
</svg>
