<svg width="24" height="19" viewBox="0 0 24 19" fill="none" xmlns="http://www.w3.org/2000/svg">
	<path d="M22.5929 0.00226279C20.3095 0.131848 15.7711 0.603523 12.9694 2.31855C12.7761 2.43689 12.6665 2.64731 12.6665 2.86731V18.0288C12.6665 18.5101 13.1927 18.8143 13.6365 18.5909C16.519 17.1401 20.6879 16.7442 22.7491 16.6359C23.4529 16.5988 24 16.0346 24 15.3584V1.28145C24.0004 0.543522 23.3604 -0.0410713 22.5929 0.00226279ZM11.0306 2.31855C8.22931 0.603523 3.6909 0.132265 1.40752 0.00226279C0.640011 -0.0410713 0 0.543522 0 1.28145V15.3588C0 16.0355 0.547093 16.5996 1.25086 16.6363C3.31297 16.7446 7.48388 17.1409 10.3664 18.5926C10.8089 18.8155 11.3335 18.5118 11.3335 18.0317V2.85981C11.3335 2.63939 11.2244 2.43731 11.0306 2.31855Z" fill="#28C7B7" />
</svg>
