<svg width="24" height="23" viewBox="0 0 24 23" fill="none" xmlns="http://www.w3.org/2000/svg">
	<path d="M22.7708 7.67946L16.217 6.7253L13.2883 0.797453C13.025 0.267758 12.5114 0 11.9978 0C11.4874 0 10.9774 0.264176 10.7132 0.797453L7.78354 6.72485L1.22929 7.67812C0.0539301 7.84827 -0.417109 9.29407 0.43497 10.1224L5.17626 14.7343L4.05418 21.2483C3.89478 22.1787 4.63761 22.9251 5.46954 22.9251C5.69028 22.9251 5.9173 22.8727 6.13535 22.7572L11.9987 19.682L17.8616 22.7581C18.0792 22.8723 18.3058 22.9242 18.5257 22.9242C19.3585 22.9242 20.1027 22.1805 19.9433 21.2496L18.8225 14.7352L23.5647 10.1242C24.4172 9.29586 23.9462 7.84961 22.7708 7.67946ZM17.3199 13.1958L16.5085 13.9848L16.7002 15.0988L17.5742 20.1786L13.0012 17.779L11.9992 17.2534L12.0005 3.05101L14.2854 7.67588L14.786 8.68915L15.9058 8.85214L21.0206 9.59676L17.3199 13.1958Z" fill="#28C7B7" />
</svg>
