<svg width="53" height="34" viewBox="0 0 53 34" fill="none" xmlns="http://www.w3.org/2000/svg">
	<path d="M1.176 32C1.032 32 0.928 31.968 0.864 31.904C0.8 31.832 0.768 31.716 0.768 31.556V24.044C0.768 23.884 0.8 23.772 0.864 23.708C0.928 23.636 1.032 23.6 1.176 23.6H3.36C4.376 23.6 5.136 23.944 5.64 24.632C6.144 25.312 6.396 26.368 6.396 27.8C6.396 29.232 6.144 30.292 5.64 30.98C5.136 31.66 4.376 32 3.36 32H1.176ZM3.312 30.656C3.8 30.656 4.164 30.436 4.404 29.996C4.644 29.548 4.764 28.816 4.764 27.8C4.764 26.784 4.644 26.056 4.404 25.616C4.164 25.168 3.8 24.944 3.312 24.944H2.388V30.656H3.312ZM9.27063 32.036C8.86263 32.036 8.65863 31.916 8.65863 31.676V23.924C8.65863 23.684 8.86263 23.564 9.27063 23.564H9.66663C10.0666 23.564 10.2666 23.684 10.2666 23.924V31.676C10.2666 31.916 10.0666 32.036 9.66663 32.036H9.27063ZM14.4793 32.084C14.0953 32.084 13.7193 32.032 13.3513 31.928C12.9913 31.816 12.7113 31.664 12.5113 31.472C12.4633 31.4 12.4273 31.34 12.4033 31.292C12.3793 31.236 12.3673 31.168 12.3673 31.088C12.3673 30.896 12.4153 30.7 12.5113 30.5C12.6073 30.292 12.7153 30.188 12.8353 30.188C12.8913 30.188 12.9713 30.22 13.0753 30.284C13.1793 30.34 13.2473 30.376 13.2793 30.392C13.6393 30.616 14.0113 30.728 14.3953 30.728C14.7073 30.728 14.9713 30.648 15.1873 30.488C15.4033 30.328 15.5113 30.08 15.5113 29.744C15.5113 29.416 15.4113 29.156 15.2113 28.964C15.0193 28.772 14.7273 28.576 14.3353 28.376C13.9273 28.152 13.5913 27.936 13.3273 27.728C13.0713 27.52 12.8673 27.268 12.7153 26.972C12.5713 26.668 12.4993 26.304 12.4993 25.88C12.4993 25.392 12.6073 24.968 12.8232 24.608C13.0393 24.248 13.3353 23.972 13.7113 23.78C14.0873 23.588 14.5193 23.492 15.0073 23.492C15.2793 23.492 15.5593 23.532 15.8473 23.612C16.1353 23.684 16.3673 23.78 16.5433 23.9C16.6553 23.98 16.7113 24.088 16.7113 24.224C16.7113 24.4 16.6673 24.596 16.5793 24.812C16.4913 25.028 16.3913 25.136 16.2793 25.136C16.2313 25.136 16.1393 25.108 16.0033 25.052C15.6993 24.924 15.3993 24.86 15.1033 24.86C14.7593 24.86 14.4993 24.948 14.3233 25.124C14.1473 25.292 14.0593 25.504 14.0593 25.76C14.0593 25.976 14.1033 26.16 14.1913 26.312C14.2873 26.456 14.4033 26.58 14.5393 26.684C14.6833 26.78 14.8873 26.9 15.1513 27.044C15.2793 27.108 15.3553 27.148 15.3793 27.164C15.9473 27.476 16.3673 27.812 16.6393 28.172C16.9113 28.524 17.0473 29.004 17.0473 29.612C17.0473 30.076 16.9473 30.496 16.7473 30.872C16.5553 31.248 16.2633 31.544 15.8713 31.76C15.4873 31.976 15.0233 32.084 14.4793 32.084ZM21.9415 32.084C20.8375 32.084 20.0295 31.74 19.5175 31.052C19.0135 30.356 18.7615 29.268 18.7615 27.788C18.7615 26.348 19.0255 25.276 19.5535 24.572C20.0815 23.868 20.8895 23.516 21.9775 23.516C22.4175 23.516 22.7855 23.568 23.0815 23.672C23.2015 23.712 23.2855 23.772 23.3335 23.852C23.3815 23.932 23.4015 24.036 23.3935 24.164C23.3935 24.404 23.3455 24.632 23.2495 24.848C23.1615 25.056 23.0455 25.128 22.9015 25.064C22.6295 24.952 22.3415 24.896 22.0375 24.896C21.4855 24.896 21.0735 25.136 20.8015 25.616C20.5375 26.088 20.4055 26.812 20.4055 27.788C20.4055 28.772 20.5375 29.504 20.8015 29.984C21.0735 30.456 21.4975 30.692 22.0735 30.692C22.2495 30.692 22.4015 30.676 22.5295 30.644C22.6655 30.612 22.8175 30.568 22.9855 30.512C23.0335 30.496 23.0695 30.488 23.0935 30.488C23.2295 30.488 23.3335 30.58 23.4055 30.764C23.4775 30.94 23.5135 31.156 23.5135 31.412C23.5135 31.524 23.4895 31.62 23.4415 31.7C23.4015 31.772 23.3175 31.832 23.1895 31.88C23.0535 31.936 22.8735 31.984 22.6495 32.024C22.4255 32.064 22.1895 32.084 21.9415 32.084ZM28.0844 32.084C26.0204 32.084 24.9884 30.652 24.9884 27.788C24.9884 24.94 26.0204 23.516 28.0844 23.516C30.1404 23.516 31.1684 24.94 31.1684 27.788C31.1684 30.652 30.1404 32.084 28.0844 32.084ZM28.0964 30.74C28.5844 30.74 28.9484 30.516 29.1884 30.068C29.4284 29.612 29.5484 28.852 29.5484 27.788C29.5484 26.724 29.4284 25.972 29.1884 25.532C28.9564 25.084 28.5924 24.86 28.0964 24.86C27.5924 24.86 27.2204 25.084 26.9804 25.532C26.7404 25.972 26.6204 26.724 26.6204 27.788C26.6204 28.852 26.7404 29.612 26.9804 30.068C27.2204 30.516 27.5924 30.74 28.0964 30.74ZM35.1442 32.024C34.8082 32.024 34.6202 31.948 34.5802 31.796L32.6722 24.02C32.6402 23.908 32.6242 23.84 32.6242 23.816C32.6242 23.656 32.8322 23.576 33.2482 23.576H33.5962C33.9482 23.576 34.1442 23.672 34.1842 23.864L35.3242 29.156C35.3722 29.372 35.4282 29.724 35.4922 30.212L35.5282 30.464H35.5762C35.6002 30.224 35.6722 29.788 35.7922 29.156L36.9322 23.864C36.9722 23.672 37.1682 23.576 37.5202 23.576H37.8562C38.2642 23.576 38.4682 23.656 38.4682 23.816C38.4682 23.864 38.4562 23.932 38.4322 24.02L36.5242 31.796C36.4842 31.948 36.2922 32.024 35.9482 32.024H35.1442ZM40.7739 32C40.6299 32 40.5259 31.968 40.4619 31.904C40.3979 31.832 40.3659 31.716 40.3659 31.556V24.044C40.3659 23.884 40.3979 23.772 40.4619 23.708C40.5259 23.636 40.6299 23.6 40.7739 23.6H44.2779C44.3899 23.6 44.4699 23.644 44.5179 23.732C44.5659 23.812 44.5899 23.94 44.5899 24.116V24.428C44.5899 24.604 44.5659 24.736 44.5179 24.824C44.4699 24.904 44.3899 24.944 44.2779 24.944H41.9619V27.032H44.0259C44.1379 27.032 44.2179 27.076 44.2659 27.164C44.3139 27.244 44.3379 27.372 44.3379 27.548V27.86C44.3379 28.036 44.3139 28.168 44.2659 28.256C44.2179 28.336 44.1379 28.376 44.0259 28.376H41.9619V30.656H44.2899C44.3939 30.656 44.4699 30.696 44.5179 30.776C44.5659 30.856 44.5899 30.988 44.5899 31.172V31.484C44.5899 31.668 44.5659 31.8 44.5179 31.88C44.4699 31.96 44.3939 32 44.2899 32H40.7739ZM47.4383 32.024C47.0223 32.024 46.8143 31.908 46.8143 31.676V24.044C46.8143 23.892 46.8463 23.78 46.9103 23.708C46.9823 23.636 47.0903 23.6 47.2343 23.6H49.1663C50.7743 23.6 51.5783 24.36 51.5783 25.88C51.5783 26.832 51.2023 27.508 50.4503 27.908V27.956C50.7703 28.132 51.0423 28.568 51.2663 29.264L51.9863 31.58C51.9943 31.604 52.0023 31.632 52.0103 31.664C52.0183 31.688 52.0223 31.712 52.0223 31.736C52.0223 31.92 51.8063 32.012 51.3743 32.012H51.0263C50.6503 32.012 50.4423 31.92 50.4023 31.736L49.7423 29.432C49.6463 29.16 49.5343 28.972 49.4063 28.868C49.2863 28.764 49.0983 28.712 48.8423 28.712H48.3983V31.676C48.3983 31.908 48.1863 32.024 47.7623 32.024H47.4383ZM49.2503 27.248C49.4663 27.248 49.6503 27.14 49.8023 26.924C49.9543 26.708 50.0303 26.42 50.0303 26.06C50.0303 25.676 49.9543 25.396 49.8023 25.22C49.6583 25.036 49.4583 24.944 49.2023 24.944H48.3863V27.248H49.2503Z" fill="url(#paint0_linear)" />
	<path d="M30.6269 4.42234L25.3887 6.81641C25.1354 6.93221 24.9322 7.13537 24.8164 7.38871L22.4223 12.6269C22.1462 13.2311 22.7685 13.8538 23.3731 13.5777L28.6113 11.1836C28.8646 11.0678 29.0678 10.8646 29.1836 10.6113L31.5777 5.37314C31.8538 4.76855 31.2315 4.14617 30.6269 4.42234V4.42234ZM27.8194 9.81943C27.3669 10.272 26.6331 10.272 26.1806 9.81943C25.728 9.36689 25.728 8.6331 26.1806 8.18056C26.6331 7.72802 27.3669 7.72802 27.8194 8.18056C28.272 8.6331 28.272 9.36689 27.8194 9.81943ZM27 0C22.0293 0 18 4.02931 18 9C18 13.9707 22.0293 18 27 18C31.9707 18 36 13.9707 36 9C36 4.02931 31.9707 0 27 0ZM27 16.2581C22.9979 16.2581 19.7419 13.0021 19.7419 9C19.7419 4.9979 22.9979 1.74194 27 1.74194C31.0021 1.74194 34.2581 4.9979 34.2581 9C34.2581 13.0021 31.0021 16.2581 27 16.2581Z" fill="url(#paint1_linear)" />
	<defs>
		<linearGradient id="paint0_linear" x1="15.9315" y1="10.1395" x2="25.9996" y2="46.7025" gradientUnits="userSpaceOnUse">
			<stop stop-color="#1FEE7E" />
			<stop offset="1" stop-color="#2386BD" />
		</linearGradient>
		<linearGradient id="paint1_linear" x1="23.4107" y1="-17.7907" x2="52.356" y2="6.0095" gradientUnits="userSpaceOnUse">
			<stop stop-color="#1FEE7E" />
			<stop offset="1" stop-color="#2386BD" />
		</linearGradient>
	</defs>
</svg>
