<svg width="45" height="34" viewBox="0 0 45 34" fill="none" xmlns="http://www.w3.org/2000/svg">
	<path d="M1.176 32C1.032 32 0.928 31.968 0.864 31.904C0.8 31.832 0.768 31.716 0.768 31.556V24.032C0.768 23.88 0.8 23.772 0.864 23.708C0.928 23.636 1.032 23.6 1.176 23.6H3.3C4.124 23.6 4.736 23.78 5.136 24.14C5.536 24.5 5.736 25.008 5.736 25.664C5.736 26.112 5.636 26.504 5.436 26.84C5.236 27.176 4.976 27.424 4.656 27.584V27.632C5.024 27.744 5.336 27.968 5.592 28.304C5.856 28.632 5.988 29.072 5.988 29.624C5.988 30.376 5.764 30.96 5.316 31.376C4.868 31.792 4.204 32 3.324 32H1.176ZM3.276 27.092C3.572 27.092 3.8 26.992 3.96 26.792C4.12 26.592 4.2 26.308 4.2 25.94C4.2 25.556 4.124 25.28 3.972 25.112C3.828 24.944 3.6 24.86 3.288 24.86H2.304V27.092H3.276ZM3.444 30.74C4.1 30.74 4.428 30.324 4.428 29.492C4.428 29.1 4.34 28.812 4.164 28.628C3.996 28.436 3.736 28.34 3.384 28.34H2.304V30.74H3.444ZM8.83675 32.024C8.42075 32.024 8.21275 31.908 8.21275 31.676V24.044C8.21275 23.892 8.24475 23.78 8.30875 23.708C8.38075 23.636 8.48875 23.6 8.63275 23.6H10.5648C12.1728 23.6 12.9768 24.36 12.9768 25.88C12.9768 26.832 12.6008 27.508 11.8488 27.908V27.956C12.1688 28.132 12.4408 28.568 12.6648 29.264L13.3848 31.58C13.3928 31.604 13.4008 31.632 13.4088 31.664C13.4168 31.688 13.4208 31.712 13.4208 31.736C13.4208 31.92 13.2048 32.012 12.7728 32.012H12.4248C12.0488 32.012 11.8408 31.92 11.8008 31.736L11.1408 29.432C11.0448 29.16 10.9328 28.972 10.8048 28.868C10.6848 28.764 10.4968 28.712 10.2408 28.712H9.79675V31.676C9.79675 31.908 9.58475 32.024 9.16075 32.024H8.83675ZM10.6488 27.248C10.8648 27.248 11.0488 27.14 11.2008 26.924C11.3528 26.708 11.4288 26.42 11.4288 26.06C11.4288 25.676 11.3528 25.396 11.2008 25.22C11.0568 25.036 10.8568 24.944 10.6008 24.944H9.78475V27.248H10.6488ZM18.1039 32.084C16.0399 32.084 15.0079 30.652 15.0079 27.788C15.0079 24.94 16.0399 23.516 18.1039 23.516C20.1599 23.516 21.1879 24.94 21.1879 27.788C21.1879 30.652 20.1599 32.084 18.1039 32.084ZM18.1159 30.74C18.6039 30.74 18.9679 30.516 19.2079 30.068C19.4479 29.612 19.5679 28.852 19.5679 27.788C19.5679 26.724 19.4479 25.972 19.2079 25.532C18.9759 25.084 18.6119 24.86 18.1159 24.86C17.6119 24.86 17.2399 25.084 16.9999 25.532C16.7599 25.972 16.6399 26.724 16.6399 27.788C16.6399 28.852 16.7599 29.612 16.9999 30.068C17.2399 30.516 17.6119 30.74 18.1159 30.74ZM24.7677 32.024C24.4557 32.024 24.2837 31.948 24.2517 31.796L22.6437 24.032C22.6357 24 22.6317 23.968 22.6317 23.936C22.6397 23.896 22.6437 23.872 22.6437 23.864C22.6437 23.672 22.8517 23.576 23.2677 23.576H23.5437C23.9597 23.576 24.1837 23.68 24.2157 23.888L24.9597 28.784L25.1517 30.428H25.1997C25.2477 30.012 25.3277 29.46 25.4397 28.772L26.3037 23.816C26.3197 23.728 26.3677 23.668 26.4477 23.636C26.5277 23.596 26.6517 23.576 26.8197 23.576H27.2877C27.4557 23.576 27.5797 23.596 27.6597 23.636C27.7477 23.668 27.7997 23.728 27.8157 23.816L28.6677 28.784C28.7157 29.088 28.7917 29.644 28.8957 30.452H28.9437C28.9757 30.068 29.0437 29.512 29.1477 28.784L29.9037 23.888C29.9277 23.68 30.1477 23.576 30.5637 23.576H30.7917C31.2157 23.576 31.4277 23.672 31.4277 23.864L31.4037 24.032L29.7837 31.796C29.7517 31.948 29.5797 32.024 29.2677 32.024H28.5837C28.2717 32.024 28.1037 31.948 28.0797 31.796L27.2397 27.584C27.1437 27.048 27.0797 26.44 27.0477 25.76H26.9997C26.9597 26.424 26.8917 27.032 26.7957 27.584L25.9557 31.796C25.9237 31.948 25.7557 32.024 25.4517 32.024H24.7677ZM34.9832 32.084C34.5992 32.084 34.2232 32.032 33.8552 31.928C33.4952 31.816 33.2152 31.664 33.0152 31.472C32.9672 31.4 32.9312 31.34 32.9072 31.292C32.8832 31.236 32.8712 31.168 32.8712 31.088C32.8712 30.896 32.9192 30.7 33.0152 30.5C33.1112 30.292 33.2192 30.188 33.3392 30.188C33.3952 30.188 33.4752 30.22 33.5792 30.284C33.6832 30.34 33.7512 30.376 33.7832 30.392C34.1432 30.616 34.5152 30.728 34.8992 30.728C35.2112 30.728 35.4752 30.648 35.6912 30.488C35.9072 30.328 36.0152 30.08 36.0152 29.744C36.0152 29.416 35.9152 29.156 35.7152 28.964C35.5232 28.772 35.2312 28.576 34.8392 28.376C34.4312 28.152 34.0952 27.936 33.8312 27.728C33.5752 27.52 33.3712 27.268 33.2192 26.972C33.0752 26.668 33.0032 26.304 33.0032 25.88C33.0032 25.392 33.1112 24.968 33.3272 24.608C33.5432 24.248 33.8392 23.972 34.2152 23.78C34.5912 23.588 35.0232 23.492 35.5112 23.492C35.7832 23.492 36.0632 23.532 36.3512 23.612C36.6392 23.684 36.8712 23.78 37.0472 23.9C37.1592 23.98 37.2152 24.088 37.2152 24.224C37.2152 24.4 37.1712 24.596 37.0832 24.812C36.9952 25.028 36.8952 25.136 36.7832 25.136C36.7352 25.136 36.6432 25.108 36.5072 25.052C36.2032 24.924 35.9032 24.86 35.6072 24.86C35.2632 24.86 35.0032 24.948 34.8272 25.124C34.6512 25.292 34.5632 25.504 34.5632 25.76C34.5632 25.976 34.6072 26.16 34.6952 26.312C34.7912 26.456 34.9072 26.58 35.0432 26.684C35.1872 26.78 35.3912 26.9 35.6552 27.044C35.7832 27.108 35.8592 27.148 35.8832 27.164C36.4512 27.476 36.8712 27.812 37.1432 28.172C37.4152 28.524 37.5512 29.004 37.5512 29.612C37.5512 30.076 37.4512 30.496 37.2512 30.872C37.0592 31.248 36.7672 31.544 36.3752 31.76C35.9912 31.976 35.5272 32.084 34.9832 32.084ZM39.9614 32C39.8174 32 39.7134 31.968 39.6494 31.904C39.5854 31.832 39.5534 31.716 39.5534 31.556V24.044C39.5534 23.884 39.5854 23.772 39.6494 23.708C39.7134 23.636 39.8174 23.6 39.9614 23.6H43.4654C43.5774 23.6 43.6574 23.644 43.7054 23.732C43.7534 23.812 43.7774 23.94 43.7774 24.116V24.428C43.7774 24.604 43.7534 24.736 43.7054 24.824C43.6574 24.904 43.5774 24.944 43.4654 24.944H41.1494V27.032H43.2134C43.3254 27.032 43.4054 27.076 43.4534 27.164C43.5014 27.244 43.5254 27.372 43.5254 27.548V27.86C43.5254 28.036 43.5014 28.168 43.4534 28.256C43.4054 28.336 43.3254 28.376 43.2134 28.376H41.1494V30.656H43.4774C43.5814 30.656 43.6574 30.696 43.7054 30.776C43.7534 30.856 43.7774 30.988 43.7774 31.172V31.484C43.7774 31.668 43.7534 31.8 43.7054 31.88C43.6574 31.96 43.5814 32 43.4774 32H39.9614Z" fill="#A8B6C6" />
	<path fill-rule="evenodd" clip-rule="evenodd" d="M22.75 3H31.75C32.9927 3 34 4.00734 34 5.25V15.75C34 16.9927 32.9927 18 31.75 18H12.25C11.0073 18 10 16.9927 10 15.75V2.25C10 1.00734 11.0073 0 12.25 0H19.75L22.75 3ZM25.7614 12.3374L28.0889 14.6155C28.306 14.8303 28.306 15.1776 28.0865 15.3923L27.4259 16.039C27.2088 16.2538 26.854 16.2538 26.6345 16.039L24.3071 13.7609C24.202 13.6581 24.1437 13.5187 24.1437 13.3725V13C23.3196 13.6307 22.2831 14.0054 21.1556 14.0054C18.4734 14.0054 16.3 11.8781 16.3 9.25273C16.3 6.62734 18.4734 4.50006 21.1556 4.50006C23.8379 4.50006 26.0112 6.62734 26.0112 9.25273C26.0112 10.3564 25.6284 11.3709 24.9841 12.1774H25.3646C25.514 12.1774 25.6564 12.2346 25.7614 12.3374ZM18.1675 9.25273C18.1675 10.8705 19.5052 12.1774 21.1556 12.1774C22.8084 12.1774 24.1437 10.8682 24.1437 9.25273C24.1437 7.63499 22.8061 6.32801 21.1556 6.32801C19.5028 6.32801 18.1675 7.63728 18.1675 9.25273Z" fill="#A8B6C6" />
</svg>
