<svg width="72" height="34" viewBox="0 0 72 34" fill="none" xmlns="http://www.w3.org/2000/svg">
	<path d="M3.672 32.084C2.568 32.084 1.76 31.74 1.248 31.052C0.744 30.356 0.492 29.268 0.492 27.788C0.492 26.348 0.756 25.276 1.284 24.572C1.812 23.868 2.62 23.516 3.708 23.516C4.148 23.516 4.516 23.568 4.812 23.672C4.932 23.712 5.016 23.772 5.064 23.852C5.112 23.932 5.132 24.036 5.124 24.164C5.124 24.404 5.076 24.632 4.98 24.848C4.892 25.056 4.776 25.128 4.632 25.064C4.36 24.952 4.072 24.896 3.768 24.896C3.216 24.896 2.804 25.136 2.532 25.616C2.268 26.088 2.136 26.812 2.136 27.788C2.136 28.772 2.268 29.504 2.532 29.984C2.804 30.456 3.228 30.692 3.804 30.692C3.98 30.692 4.132 30.676 4.26 30.644C4.396 30.612 4.548 30.568 4.716 30.512C4.764 30.496 4.8 30.488 4.824 30.488C4.96 30.488 5.064 30.58 5.136 30.764C5.208 30.94 5.244 31.156 5.244 31.412C5.244 31.524 5.22 31.62 5.172 31.7C5.132 31.772 5.048 31.832 4.92 31.88C4.784 31.936 4.604 31.984 4.38 32.024C4.156 32.064 3.92 32.084 3.672 32.084ZM9.81484 32.084C7.75084 32.084 6.71884 30.652 6.71884 27.788C6.71884 24.94 7.75084 23.516 9.81484 23.516C11.8708 23.516 12.8988 24.94 12.8988 27.788C12.8988 30.652 11.8708 32.084 9.81484 32.084ZM9.82684 30.74C10.3148 30.74 10.6788 30.516 10.9188 30.068C11.1588 29.612 11.2788 28.852 11.2788 27.788C11.2788 26.724 11.1588 25.972 10.9188 25.532C10.6868 25.084 10.3228 24.86 9.82684 24.86C9.32284 24.86 8.95084 25.084 8.71084 25.532C8.47084 25.972 8.35084 26.724 8.35084 27.788C8.35084 28.852 8.47084 29.612 8.71084 30.068C8.95084 30.516 9.32284 30.74 9.82684 30.74ZM15.5744 32C15.4304 32 15.3264 31.968 15.2624 31.904C15.1984 31.832 15.1664 31.716 15.1664 31.556V23.924C15.1664 23.692 15.3704 23.576 15.7784 23.576H16.1504C16.3664 23.576 16.5224 23.604 16.6184 23.66C16.7144 23.716 16.7624 23.804 16.7624 23.924V30.656H18.8024C18.9144 30.656 18.9944 30.7 19.0424 30.788C19.0904 30.868 19.1144 30.996 19.1144 31.172V31.484C19.1144 31.66 19.0904 31.792 19.0424 31.88C18.9944 31.96 18.9144 32 18.8024 32H15.5744ZM21.3557 32C21.2117 32 21.1077 31.968 21.0437 31.904C20.9797 31.832 20.9477 31.716 20.9477 31.556V23.924C20.9477 23.692 21.1517 23.576 21.5597 23.576H21.9317C22.1477 23.576 22.3037 23.604 22.3997 23.66C22.4957 23.716 22.5437 23.804 22.5437 23.924V30.656H24.5837C24.6957 30.656 24.7757 30.7 24.8237 30.788C24.8717 30.868 24.8957 30.996 24.8957 31.172V31.484C24.8957 31.66 24.8717 31.792 24.8237 31.88C24.7757 31.96 24.6957 32 24.5837 32H21.3557ZM27.1489 32C27.0049 32 26.9009 31.968 26.8369 31.904C26.7729 31.832 26.7409 31.716 26.7409 31.556V24.044C26.7409 23.884 26.7729 23.772 26.8369 23.708C26.9009 23.636 27.0049 23.6 27.1489 23.6H30.6529C30.7649 23.6 30.8449 23.644 30.8929 23.732C30.9409 23.812 30.9649 23.94 30.9649 24.116V24.428C30.9649 24.604 30.9409 24.736 30.8929 24.824C30.8449 24.904 30.7649 24.944 30.6529 24.944H28.3369V27.032H30.4009C30.5129 27.032 30.5929 27.076 30.6409 27.164C30.6889 27.244 30.7129 27.372 30.7129 27.548V27.86C30.7129 28.036 30.6889 28.168 30.6409 28.256C30.5929 28.336 30.5129 28.376 30.4009 28.376H28.3369V30.656H30.6649C30.7689 30.656 30.8449 30.696 30.8929 30.776C30.9409 30.856 30.9649 30.988 30.9649 31.172V31.484C30.9649 31.668 30.9409 31.8 30.8929 31.88C30.8449 31.96 30.7689 32 30.6649 32H27.1489ZM36.1173 32.084C35.0133 32.084 34.2053 31.74 33.6933 31.052C33.1893 30.356 32.9373 29.268 32.9373 27.788C32.9373 26.348 33.2013 25.276 33.7293 24.572C34.2573 23.868 35.0653 23.516 36.1533 23.516C36.5933 23.516 36.9613 23.568 37.2573 23.672C37.3773 23.712 37.4613 23.772 37.5093 23.852C37.5573 23.932 37.5773 24.036 37.5693 24.164C37.5693 24.404 37.5213 24.632 37.4253 24.848C37.3373 25.056 37.2213 25.128 37.0773 25.064C36.8053 24.952 36.5173 24.896 36.2133 24.896C35.6613 24.896 35.2493 25.136 34.9773 25.616C34.7133 26.088 34.5813 26.812 34.5813 27.788C34.5813 28.772 34.7133 29.504 34.9773 29.984C35.2493 30.456 35.6733 30.692 36.2493 30.692C36.4253 30.692 36.5773 30.676 36.7053 30.644C36.8413 30.612 36.9933 30.568 37.1613 30.512C37.2093 30.496 37.2453 30.488 37.2693 30.488C37.4053 30.488 37.5093 30.58 37.5813 30.764C37.6533 30.94 37.6893 31.156 37.6893 31.412C37.6893 31.524 37.6653 31.62 37.6173 31.7C37.5773 31.772 37.4933 31.832 37.3653 31.88C37.2293 31.936 37.0493 31.984 36.8253 32.024C36.6013 32.064 36.3653 32.084 36.1173 32.084ZM41.4851 32.024C41.0771 32.024 40.8731 31.908 40.8731 31.676V24.944H39.4091C39.2971 24.944 39.2171 24.904 39.1691 24.824C39.1211 24.736 39.0971 24.604 39.0971 24.428V24.116C39.0971 23.94 39.1211 23.812 39.1691 23.732C39.2171 23.644 39.2971 23.6 39.4091 23.6H43.9451C44.0571 23.6 44.1371 23.64 44.1851 23.72C44.2411 23.8 44.2691 23.932 44.2691 24.116V24.428C44.2691 24.612 44.2411 24.744 44.1851 24.824C44.1371 24.904 44.0571 24.944 43.9451 24.944H42.4811V31.676C42.4811 31.908 42.2771 32.024 41.8691 32.024H41.4851ZM46.7823 32.036C46.3743 32.036 46.1703 31.916 46.1703 31.676V23.924C46.1703 23.684 46.3743 23.564 46.7823 23.564H47.1783C47.5783 23.564 47.7783 23.684 47.7783 23.924V31.676C47.7783 31.916 47.5783 32.036 47.1783 32.036H46.7823ZM53.143 32.084C51.079 32.084 50.047 30.652 50.047 27.788C50.047 24.94 51.079 23.516 53.143 23.516C55.199 23.516 56.227 24.94 56.227 27.788C56.227 30.652 55.199 32.084 53.143 32.084ZM53.155 30.74C53.643 30.74 54.007 30.516 54.247 30.068C54.487 29.612 54.607 28.852 54.607 27.788C54.607 26.724 54.487 25.972 54.247 25.532C54.015 25.084 53.651 24.86 53.155 24.86C52.651 24.86 52.279 25.084 52.039 25.532C51.799 25.972 51.679 26.724 51.679 27.788C51.679 28.852 51.799 29.612 52.039 30.068C52.279 30.516 52.651 30.74 53.155 30.74ZM59.0466 32.024C58.6386 32.024 58.4346 31.908 58.4346 31.676V23.924C58.4346 23.692 58.6386 23.576 59.0466 23.576H59.3586C59.5026 23.576 59.6186 23.596 59.7066 23.636C59.7946 23.676 59.8666 23.756 59.9226 23.876L62.2986 28.292C62.3946 28.468 62.5186 28.76 62.6706 29.168L62.7306 29.144C62.6666 28.824 62.6346 28.524 62.6346 28.244V23.924C62.6346 23.692 62.8386 23.576 63.2466 23.576H63.4866C63.8946 23.576 64.0986 23.692 64.0986 23.924V31.676C64.0986 31.908 63.8946 32.024 63.4866 32.024H63.2466C63.1026 32.024 62.9826 32.004 62.8866 31.964C62.7906 31.924 62.7186 31.848 62.6706 31.736L60.1866 27.152C60.1066 27.008 59.9986 26.756 59.8626 26.396L59.8026 26.42C59.8666 26.716 59.8986 26.988 59.8986 27.236V31.676C59.8986 31.908 59.6946 32.024 59.2866 32.024H59.0466ZM68.2527 32.084C67.8687 32.084 67.4927 32.032 67.1247 31.928C66.7647 31.816 66.4847 31.664 66.2847 31.472C66.2367 31.4 66.2007 31.34 66.1767 31.292C66.1527 31.236 66.1407 31.168 66.1407 31.088C66.1407 30.896 66.1887 30.7 66.2847 30.5C66.3807 30.292 66.4887 30.188 66.6087 30.188C66.6647 30.188 66.7447 30.22 66.8487 30.284C66.9527 30.34 67.0207 30.376 67.0527 30.392C67.4127 30.616 67.7847 30.728 68.1687 30.728C68.4807 30.728 68.7447 30.648 68.9607 30.488C69.1767 30.328 69.2847 30.08 69.2847 29.744C69.2847 29.416 69.1847 29.156 68.9847 28.964C68.7927 28.772 68.5007 28.576 68.1087 28.376C67.7007 28.152 67.3647 27.936 67.1007 27.728C66.8447 27.52 66.6407 27.268 66.4887 26.972C66.3447 26.668 66.2727 26.304 66.2727 25.88C66.2727 25.392 66.3807 24.968 66.5967 24.608C66.8127 24.248 67.1087 23.972 67.4847 23.78C67.8607 23.588 68.2927 23.492 68.7807 23.492C69.0527 23.492 69.3327 23.532 69.6207 23.612C69.9087 23.684 70.1407 23.78 70.3167 23.9C70.4287 23.98 70.4847 24.088 70.4847 24.224C70.4847 24.4 70.4407 24.596 70.3527 24.812C70.2647 25.028 70.1647 25.136 70.0527 25.136C70.0047 25.136 69.9127 25.108 69.7767 25.052C69.4727 24.924 69.1727 24.86 68.8767 24.86C68.5327 24.86 68.2727 24.948 68.0967 25.124C67.9207 25.292 67.8327 25.504 67.8327 25.76C67.8327 25.976 67.8767 26.16 67.9647 26.312C68.0607 26.456 68.1767 26.58 68.3127 26.684C68.4567 26.78 68.6607 26.9 68.9247 27.044C69.0527 27.108 69.1287 27.148 69.1527 27.164C69.7207 27.476 70.1407 27.812 70.4127 28.172C70.6847 28.524 70.8207 29.004 70.8207 29.612C70.8207 30.076 70.7207 30.496 70.5207 30.872C70.3287 31.248 70.0367 31.544 69.6447 31.76C69.2607 31.976 68.7967 32.084 68.2527 32.084Z" fill="url(#paint0_linear)" />
	<path d="M43.9231 12.2745L41.0828 0.514697C40.9956 0.153714 40.6302 -0.0701362 40.2735 0.0199416L37.6666 0.65183C37.4936 0.693508 37.3447 0.80308 37.2522 0.955002C37.1597 1.10692 37.1308 1.28977 37.1724 1.4632L40.012 13.2237C40.0536 13.3972 40.1629 13.5464 40.3144 13.6392C40.4217 13.7044 40.5424 13.738 40.6644 13.738C40.7174 13.738 40.7703 13.7313 40.822 13.7192L43.4289 13.0866C43.789 12.9985 44.0102 12.6355 43.9231 12.2745Z" fill="url(#paint1_linear)" />
	<path d="M31.2017 0.293457H28.5196C28.1495 0.293457 27.8491 0.593941 27.8491 0.96568V13.0657C27.8491 13.4374 28.1495 13.7379 28.5196 13.7379H31.2017C31.5718 13.7379 31.8722 13.4374 31.8722 13.0657V0.96568C31.8722 0.593941 31.5718 0.293457 31.2017 0.293457Z" fill="url(#paint2_linear)" />
	<path d="M36.5664 0.293457H33.8844C33.5143 0.293457 33.2139 0.593941 33.2139 0.96568V13.0657C33.2139 13.4374 33.5143 13.7379 33.8844 13.7379H36.5664C36.9365 13.7379 37.2369 13.4374 37.2369 13.0657V0.96568C37.2369 0.593941 36.9365 0.293457 36.5664 0.293457Z" fill="url(#paint3_linear)" />
	<path d="M26 15.937L26 17.3278C26 17.6989 26.2997 18 26.6705 18L44.9591 18C45.3299 18 45.6296 17.6988 45.6296 17.3278L45.6296 15.937C45.6296 15.566 45.3299 15.2648 44.9591 15.2648L26.6705 15.2648C26.2997 15.2648 26 15.566 26 15.937Z" fill="url(#paint4_linear)" />
	<defs>
		<linearGradient id="paint0_linear" x1="21.6429" y1="10.1395" x2="29.3013" y2="47.9225" gradientUnits="userSpaceOnUse">
			<stop stop-color="#1FEE7E" />
			<stop offset="1" stop-color="#2386BD" />
		</linearGradient>
		<linearGradient id="paint1_linear" x1="39.1943" y1="-13.5782" x2="54.8982" y2="-7.19789" gradientUnits="userSpaceOnUse">
			<stop stop-color="#1FEE7E" />
			<stop offset="1" stop-color="#2386BD" />
		</linearGradient>
		<linearGradient id="paint2_linear" x1="29.0584" y1="-12.9947" x2="39.2827" y2="-10.4791" gradientUnits="userSpaceOnUse">
			<stop stop-color="#1FEE7E" />
			<stop offset="1" stop-color="#2386BD" />
		</linearGradient>
		<linearGradient id="paint3_linear" x1="34.4232" y1="-12.9947" x2="44.6474" y2="-10.4791" gradientUnits="userSpaceOnUse">
			<stop stop-color="#1FEE7E" />
			<stop offset="1" stop-color="#2386BD" />
		</linearGradient>
		<linearGradient id="paint4_linear" x1="6.59864" y1="17.1778" x2="7.43232" y2="9.90131" gradientUnits="userSpaceOnUse">
			<stop stop-color="#1FEE7E" />
			<stop offset="1" stop-color="#2386BD" />
		</linearGradient>
	</defs>
</svg>
