<svg width="250" height="166" viewBox="0 0 250 166" fill="none" xmlns="http://www.w3.org/2000/svg">
<g clip-path="url(#clip0)">
<path d="M105.213 61.3393L100.822 58.5948L103.52 51.7445C103.78 51.0864 104.223 50.5167 104.797 50.1034C105.371 49.69 106.052 49.4505 106.758 49.4133C107.464 49.3761 108.166 49.5427 108.78 49.893C109.394 50.2433 109.894 50.7628 110.221 51.3894C110.548 52.0161 110.689 52.7235 110.625 53.4276C110.562 54.1317 110.297 54.8026 109.863 55.3606L105.213 61.3393Z" fill="#FEB8B8"/>
<path d="M82.1137 135.56L76.0679 132.939L79.3484 126.187L84.2311 129.044L82.1137 135.56Z" fill="#FEB8B8"/>
<path d="M79.7669 146.354L72.8126 139.262C72.1489 138.589 71.7782 137.682 71.7813 136.737C71.7844 135.792 72.1611 134.887 72.8291 134.219L76.3303 130.717C76.4565 130.59 76.6109 130.495 76.781 130.438C76.9511 130.382 77.132 130.366 77.3093 130.392C77.4865 130.419 77.655 130.487 77.8012 130.59C77.9473 130.694 78.067 130.831 78.1506 130.989C79.0125 132.665 80.1865 133.568 81.707 133.614C82.6185 133.641 82.7621 133.607 82.9995 134.488L82.7068 141.122L83.9098 142.491C84.3608 143.005 84.6112 143.664 84.6148 144.347C84.6183 145.03 84.3749 145.692 83.9292 146.21C83.674 146.506 83.3601 146.747 83.0074 146.916C82.6546 147.085 82.2707 147.18 81.8796 147.193C81.4886 147.207 81.099 147.139 80.7354 146.995C80.3718 146.85 80.042 146.632 79.7669 146.354Z" fill="#2F2E41"/>
<path d="M84.6298 130.227L78.3174 127.208L83.532 94.274L58.0404 96.3983C49.9806 97.0699 43.3278 89.8623 44.9615 81.9412C45.4371 79.5439 46.755 77.3958 48.6768 75.8857L73.9262 78.9047L90.2862 81.1542C91.9279 81.3799 93.461 82.1036 94.6788 83.2276C95.8965 84.3516 96.7404 85.8219 97.0967 87.4403C97.3806 88.7299 97.3451 90.0694 96.9932 91.3421L84.6298 130.227Z" fill="#2F2E41"/>
<path d="M40.8545 165.494C62.8328 165.494 80.6498 147.677 80.6498 125.699C80.6498 103.72 62.8328 85.9033 40.8545 85.9033C18.8761 85.9033 1.05908 103.72 1.05908 125.699C1.05908 147.677 18.8761 165.494 40.8545 165.494Z" fill="#BBBBBB"/>
<path d="M101.097 56.9487L107.409 59.9676L97.3666 76.466C96.9267 77.1887 96.2832 77.7654 95.5169 78.1239C94.7505 78.4825 93.8954 78.6067 93.0587 78.4812C92.2599 78.3614 91.511 78.0189 90.898 77.4929C90.285 76.967 89.8327 76.2789 89.5929 75.5076L78.3748 54.0507C77.9932 53.3208 77.7733 52.5173 77.7301 51.6948C77.6868 50.8723 77.8213 50.0501 78.1243 49.2842C78.4273 48.5183 78.8917 47.8267 79.4859 47.2564C80.0801 46.6861 80.7903 46.2505 81.5679 45.9792H81.5679C82.2888 45.7277 83.0525 45.6227 83.8144 45.6703C84.5764 45.718 85.3211 45.9172 86.005 46.2565C86.6889 46.5957 87.2982 47.0681 87.7971 47.6459C88.296 48.2237 88.6746 48.8953 88.9105 49.6213L94.2354 66.0056L101.097 56.9487Z" fill="#28C7B7"/>
<path d="M73.4905 48.9018C75.5514 49.1873 77.6682 48.508 79.3879 47.337C81.1077 46.1661 82.4668 44.5339 83.6173 42.8004C85.5614 39.868 86.9633 36.6104 87.7564 33.1827C88.4118 33.9705 89.2697 34.5647 90.2376 34.9015C91.2055 35.2382 92.2469 35.3048 93.2498 35.094C96.5221 34.3593 98.4846 30.5413 97.8463 27.2489C97.208 23.9564 94.5069 21.346 91.4244 20.0246C88.342 18.7032 84.9067 18.4849 81.5529 18.4924C79.3415 18.4973 77.0877 18.6004 75.0104 19.3589C72.9331 20.1174 71.03 21.629 70.292 23.7137C69.8294 25.0207 69.8445 26.4673 69.3184 27.7501C68.3634 30.0789 65.8863 31.3506 63.5615 32.3155C61.2368 33.2804 58.7095 34.2603 57.3386 36.3713C55.7905 38.755 56.2373 42.0819 57.9433 44.3553C59.6493 46.6287 62.3893 47.9469 65.1777 48.4981C67.966 49.0494 70.8387 48.9131 73.6777 48.7745" fill="#2F2E41"/>
<path d="M72.5078 135.56L66.4619 132.939L69.7424 126.187L74.6252 129.044L72.5078 135.56Z" fill="#FEB8B8"/>
<path d="M70.1609 146.354L63.2067 139.262C62.543 138.589 62.1722 137.682 62.1753 136.737C62.1784 135.792 62.5551 134.887 63.2232 134.219L66.7244 130.717C66.8506 130.59 67.005 130.495 67.175 130.438C67.3451 130.382 67.5261 130.366 67.7033 130.392C67.8806 130.419 68.0491 130.487 68.1952 130.59C68.3414 130.694 68.4611 130.831 68.5446 130.989C69.4065 132.665 70.5805 133.568 72.101 133.614C73.0125 133.641 73.1561 133.607 73.3935 134.488L73.1008 141.122L74.3038 142.491C74.7549 143.005 75.0052 143.664 75.0088 144.347C75.0124 145.03 74.7689 145.692 74.3232 146.21C74.068 146.506 73.7542 146.747 73.4014 146.916C73.0487 147.085 72.6647 147.18 72.2737 147.193C71.8826 147.207 71.493 147.139 71.1294 146.995C70.7658 146.85 70.4361 146.632 70.1609 146.354Z" fill="#2F2E41"/>
<path d="M74.2006 131.873L67.8882 128.855L73.1028 95.9204L47.6112 98.0447C39.5514 98.7164 32.8986 91.5088 34.5323 83.5877C35.0079 81.1903 36.3258 79.0423 38.2476 77.5322L63.497 80.5512L79.857 82.8007C81.4987 83.0264 83.0318 83.7501 84.2496 84.8741C85.4673 85.9981 86.3112 87.4684 86.6675 89.0868C86.9514 90.3764 86.9159 91.7159 86.564 92.9886L74.2006 131.873Z" fill="#2F2E41"/>
<path d="M83.3944 41.8533C88.9269 41.8533 93.4119 37.3683 93.4119 31.8358C93.4119 26.3033 88.9269 21.8184 83.3944 21.8184C77.8619 21.8184 73.377 26.3033 73.377 31.8358C73.377 37.3683 77.8619 41.8533 83.3944 41.8533Z" fill="#FEB8B8"/>
<path d="M76.3961 55.3018L72.2793 44.0494C75.2025 40.9475 75.8461 37.1412 74.7494 32.7969L86.5507 39.3837L76.3961 55.3018Z" fill="#FEB8B8"/>
<path d="M68.1623 81.9235C60.835 84.3691 51.1382 83.5689 38.9885 79.4088C38.6601 79.295 38.3645 79.1028 38.1273 78.8489C37.8901 78.5949 37.7185 78.2869 37.6274 77.9515C37.5363 77.6162 37.5284 77.2637 37.6045 76.9246C37.6805 76.5855 37.8382 76.2701 38.0638 76.0058C46.2585 66.3737 53.6107 56.9398 59.6779 47.8083C61.9677 44.8479 65.225 42.7863 68.8805 41.9838L74.4746 40.7559L82.9826 45.1471L85.2123 46.4074C85.7382 46.7046 86.1981 47.1057 86.5639 47.5864C86.9298 48.0671 87.1939 48.6172 87.3403 49.2032C87.4867 49.7893 87.5123 50.399 87.4155 50.9953C87.3187 51.5915 87.1015 52.1618 86.7772 52.6714C83.3609 61.0183 78.9078 68.6387 71.1812 73.9644L68.1623 81.9235Z" fill="#28C7B7"/>
<path d="M83.6269 29.8873C84.8581 31.846 86.6877 33.3559 88.8444 34.1932C90.3718 34.7814 92.31 34.9276 93.4565 33.7593C94.287 32.9131 94.4525 31.6106 94.3347 30.4308C93.9669 26.7481 91.1991 23.5412 87.7649 22.1614C84.3308 20.7816 80.3663 21.0832 76.9391 22.4802C73.7055 23.7982 70.6345 26.4985 70.4606 29.986C70.3714 31.7733 71.0186 33.7414 70.0592 35.2519C69.3366 36.3896 67.9409 36.8519 66.6909 37.3557C65.4408 37.8595 64.0992 38.6545 63.8426 39.9776C63.6682 40.877 64.0709 41.8157 64.7033 42.4786C65.368 43.1133 66.1546 43.6064 67.0154 43.9282C69.054 44.7963 71.2982 45.3375 73.4883 45.0019C75.6785 44.6663 77.7963 43.3325 78.6535 41.2893C79.3135 39.7159 79.1783 37.9403 79.1021 36.2357C79.0259 34.5311 79.049 32.7157 79.9591 31.2724C80.8693 29.8291 82.9823 29.0211 84.3425 30.0514" fill="#2F2E41"/>
<path opacity="0.2" d="M59.2427 58.7324C59.2427 58.7324 67.2018 78.4929 69.1229 79.5907C71.0441 80.6885 71.0441 77.9461 71.0441 77.9461L59.2427 58.7324Z" fill="black"/>
<path d="M121.714 52.2903L73.4078 60.1487C73.1705 60.187 72.9278 60.1296 72.7328 59.9892C72.5379 59.8488 72.4065 59.6368 72.3677 59.3996L70.4183 47.4169C70.38 47.1797 70.4374 46.9369 70.5778 46.742C70.7182 46.547 70.9303 46.4156 71.1674 46.3768L119.474 38.5184C119.711 38.4801 119.954 38.5375 120.149 38.6779C120.344 38.8183 120.475 39.0304 120.514 39.2675L122.463 51.2502C122.502 51.4875 122.444 51.7302 122.304 51.9252C122.163 52.1201 121.951 52.2515 121.714 52.2903Z" fill="#28283C"/>
<path d="M78.5492 56.0506C80.6515 56.0506 82.3558 54.3463 82.3558 52.244C82.3558 50.1417 80.6515 48.4375 78.5492 48.4375C76.4469 48.4375 74.7427 50.1417 74.7427 52.244C74.7427 54.3463 76.4469 56.0506 78.5492 56.0506Z" fill="#BBBBBB"/>
<path d="M86.8191 48.3281C86.7368 48.3414 86.6579 48.3708 86.5869 48.4146C86.5159 48.4584 86.4543 48.5157 86.4055 48.5833C86.3567 48.651 86.3218 48.7276 86.3026 48.8087C86.2835 48.8899 86.2805 48.974 86.2939 49.0563C86.3073 49.1386 86.3368 49.2175 86.3806 49.2884C86.4245 49.3593 86.482 49.4209 86.5497 49.4696C86.6174 49.5182 86.694 49.5531 86.7752 49.5721C86.8564 49.5912 86.9405 49.594 87.0228 49.5805L116.543 44.7782C116.626 44.7648 116.704 44.7354 116.775 44.6915C116.846 44.6477 116.908 44.5904 116.956 44.5228C117.005 44.4551 117.04 44.3786 117.059 44.2975C117.078 44.2164 117.081 44.1324 117.068 44.0501C117.054 43.9679 117.025 43.8891 116.981 43.8183C116.937 43.7474 116.88 43.6859 116.812 43.6372C116.745 43.5885 116.668 43.5536 116.587 43.5345C116.506 43.5154 116.422 43.5124 116.34 43.5258L86.8191 48.3281Z" fill="#BBBBBB"/>
<path d="M87.4304 52.0848C87.3481 52.0981 87.2692 52.1275 87.1982 52.1713C87.1273 52.2151 87.0656 52.2724 87.0169 52.3401C86.9681 52.4077 86.9331 52.4843 86.9139 52.5654C86.8948 52.6466 86.8918 52.7307 86.9052 52.8131C86.9186 52.8954 86.9481 52.9742 86.992 53.0451C87.0359 53.116 87.0933 53.1776 87.161 53.2263C87.2287 53.275 87.3054 53.3098 87.3865 53.3289C87.4677 53.3479 87.5519 53.3507 87.6342 53.3372L117.155 48.5349C117.321 48.5077 117.469 48.4158 117.567 48.2793C117.665 48.1428 117.705 47.9729 117.678 47.807C117.651 47.641 117.56 47.4926 117.423 47.3942C117.287 47.2959 117.117 47.2557 116.951 47.2825L87.4304 52.0848Z" fill="#BBBBBB"/>
<path d="M86.5504 66.0054L82.1592 63.2609L84.8578 56.4106C85.117 55.7524 85.5601 55.1827 86.1342 54.7694C86.7082 54.356 87.389 54.1165 88.0954 54.0793C88.8013 54.0422 89.5031 54.2087 90.1171 54.559C90.7311 54.9094 91.2314 55.4288 91.5586 56.0554C91.8858 56.6821 92.026 57.3896 91.9625 58.0936C91.899 58.7977 91.6345 59.4686 91.2005 60.0267L86.5504 66.0054Z" fill="#FEB8B8"/>
<path d="M82.1597 61.6137L88.4721 64.6327L78.4296 81.131C77.9897 81.8537 77.3462 82.4305 76.5799 82.789C75.8135 83.1475 74.9584 83.2718 74.1217 83.1463C73.3229 83.0265 72.574 82.6839 71.961 82.158C71.348 81.632 70.8957 80.9439 70.6559 80.1726L59.4378 58.7157C59.0562 57.9858 58.8363 57.1823 58.7931 56.3598C58.7498 55.5373 58.8843 54.7151 59.1873 53.9493C59.4903 53.1834 59.9547 52.4917 60.5489 51.9214C61.1431 51.3511 61.8533 50.9155 62.6309 50.6442H62.6309C63.3517 50.3928 64.1155 50.2878 64.8774 50.3354C65.6393 50.383 66.3841 50.5823 67.068 50.9215C67.7519 51.2607 68.3612 51.7331 68.8601 52.3109C69.359 52.8887 69.7376 53.5603 69.9735 54.2863L75.2984 70.6706L82.1597 61.6137Z" fill="#28C7B7"/>
<path d="M239.971 121.047C236.335 126.187 235.374 155.444 235.16 164.822C235.155 165.033 235.149 165.233 235.146 165.423H225.941C225.829 165.222 225.725 165.025 225.626 164.822C220.17 154.052 223.197 141.139 223.356 140.486C222.942 142.539 224.816 148.489 226.935 154.253C228.228 136.531 239.28 121.942 239.971 121.047Z" fill="#BBBBBB"/>
<path d="M250 164.821L249.89 165.422H0V164.821H250Z" fill="#3F3D56"/>
<path d="M227.775 53.8399H153.673C153.309 53.8395 152.96 53.6947 152.703 53.4375C152.446 53.1802 152.301 52.8314 152.301 52.4676V34.0861C152.301 33.7223 152.446 33.3735 152.703 33.1163C152.96 32.859 153.309 32.7143 153.673 32.7139H227.775C228.139 32.7143 228.487 32.859 228.745 33.1163C229.002 33.3735 229.147 33.7223 229.147 34.0861V52.4676C229.147 52.8314 229.002 53.1802 228.745 53.4375C228.487 53.6947 228.139 53.8395 227.775 53.8399ZM153.673 33.2628C153.455 33.263 153.245 33.3498 153.091 33.5042C152.937 33.6585 152.85 33.8678 152.85 34.0861V52.4676C152.85 52.6859 152.937 52.8952 153.091 53.0496C153.245 53.2039 153.455 53.2907 153.673 53.291H227.775C227.993 53.2907 228.202 53.2039 228.357 53.0496C228.511 52.8952 228.598 52.6859 228.598 52.4676V34.0861C228.598 33.8678 228.511 33.6585 228.357 33.5042C228.202 33.3498 227.993 33.263 227.775 33.2628H153.673Z" fill="#BBBBBB"/>
<path d="M163.279 49.0406C166.462 49.0406 169.043 46.4602 169.043 43.2771C169.043 40.0941 166.462 37.5137 163.279 37.5137C160.096 37.5137 157.516 40.0941 157.516 43.2771C157.516 46.4602 160.096 49.0406 163.279 49.0406Z" fill="#BBBBBB"/>
<path d="M176.589 39.4346C176.335 39.4346 176.09 39.5358 175.91 39.7159C175.73 39.8961 175.629 40.1404 175.629 40.3951C175.629 40.6499 175.73 40.8942 175.91 41.0744C176.09 41.2545 176.335 41.3557 176.589 41.3557H221.874C222.129 41.3557 222.373 41.2545 222.553 41.0744C222.733 40.8942 222.834 40.6499 222.834 40.3951C222.834 40.1404 222.733 39.8961 222.553 39.7159C222.373 39.5358 222.129 39.4346 221.874 39.4346H176.589Z" fill="#BBBBBB"/>
<path d="M176.589 45.1982C176.335 45.1982 176.09 45.2994 175.91 45.4796C175.73 45.6597 175.629 45.9041 175.629 46.1588C175.629 46.4136 175.73 46.6579 175.91 46.838C176.09 47.0182 176.335 47.1194 176.589 47.1194H221.874C222.129 47.1194 222.373 47.0182 222.553 46.838C222.733 46.6579 222.834 46.4136 222.834 46.1588C222.834 45.9041 222.733 45.6597 222.553 45.4796C222.373 45.2994 222.129 45.1982 221.874 45.1982H176.589Z" fill="#BBBBBB"/>
<path d="M227.775 84.5782H153.673C153.309 84.5777 152.96 84.433 152.703 84.1758C152.446 83.9185 152.301 83.5697 152.301 83.2059V64.8244C152.301 64.4606 152.446 64.1118 152.703 63.8545C152.96 63.5973 153.309 63.4526 153.673 63.4521H227.775C228.139 63.4526 228.487 63.5973 228.745 63.8545C229.002 64.1118 229.147 64.4606 229.147 64.8244V83.2059C229.147 83.5697 229.002 83.9185 228.745 84.1758C228.487 84.433 228.139 84.5777 227.775 84.5782ZM153.673 64.001C153.455 64.0013 153.245 64.0881 153.091 64.2425C152.937 64.3968 152.85 64.6061 152.85 64.8244V83.2059C152.85 83.4242 152.937 83.6335 153.091 83.7878C153.245 83.9422 153.455 84.029 153.673 84.0293H227.775C227.993 84.029 228.202 83.9422 228.357 83.7878C228.511 83.6335 228.598 83.4242 228.598 83.2059V64.8244C228.598 64.6061 228.511 64.3968 228.357 64.2425C228.202 64.0881 227.993 64.0013 227.775 64.001H153.673Z" fill="#BBBBBB"/>
<path d="M163.279 79.7789C166.462 79.7789 169.043 77.1985 169.043 74.0154C169.043 70.8323 166.462 68.252 163.279 68.252C160.096 68.252 157.516 70.8323 157.516 74.0154C157.516 77.1985 160.096 79.7789 163.279 79.7789Z" fill="#BBBBBB"/>
<path d="M176.589 70.1729C176.335 70.1729 176.09 70.2741 175.91 70.4542C175.73 70.6343 175.629 70.8787 175.629 71.1334C175.629 71.3882 175.73 71.6325 175.91 71.8127C176.09 71.9928 176.335 72.094 176.589 72.094H221.874C222.129 72.094 222.373 71.9928 222.553 71.8127C222.733 71.6325 222.834 71.3882 222.834 71.1334C222.834 70.8787 222.733 70.6343 222.553 70.4542C222.373 70.2741 222.129 70.1729 221.874 70.1729H176.589Z" fill="#BBBBBB"/>
<path d="M176.589 75.9365C176.335 75.9365 176.09 76.0377 175.91 76.2179C175.73 76.398 175.629 76.6423 175.629 76.8971C175.629 77.1519 175.73 77.3962 175.91 77.5763C176.09 77.7565 176.335 77.8577 176.589 77.8577H221.874C222.129 77.8577 222.373 77.7565 222.553 77.5763C222.733 77.3962 222.834 77.1519 222.834 76.8971C222.834 76.6423 222.733 76.398 222.553 76.2179C222.373 76.0377 222.129 75.9365 221.874 75.9365H176.589Z" fill="#BBBBBB"/>
<path d="M190.724 23.0539C188.444 23.0539 186.216 22.3778 184.32 21.1112C182.425 19.8446 180.947 18.0444 180.075 15.9381C179.202 13.8318 178.974 11.5142 179.419 9.27815C179.864 7.04214 180.961 4.98823 182.573 3.37616C184.185 1.76409 186.239 0.666261 188.475 0.221492C190.711 -0.223278 193.029 0.00499518 195.135 0.877442C197.242 1.74989 199.042 3.22732 200.309 5.12292C201.575 7.01851 202.251 9.24713 202.251 11.5269C202.248 14.583 201.032 17.5129 198.871 19.6739C196.71 21.8349 193.78 23.0504 190.724 23.0539ZM190.724 0.548905C188.553 0.548905 186.43 1.19275 184.625 2.39904C182.82 3.60532 181.413 5.31985 180.582 7.32583C179.751 9.3318 179.534 11.5391 179.957 13.6686C180.381 15.7982 181.426 17.7543 182.962 19.2896C184.497 20.8249 186.453 21.8704 188.583 22.294C190.712 22.7176 192.919 22.5002 194.925 21.6693C196.931 20.8384 198.646 19.4313 199.852 17.626C201.058 15.8207 201.702 13.6982 201.702 11.5269C201.699 8.6164 200.541 5.82601 198.483 3.76795C196.425 1.70988 193.635 0.552212 190.724 0.548905Z" fill="#28C7B7"/>
<path d="M195.273 10.3901H191.861V6.97887C191.861 6.6773 191.742 6.38808 191.528 6.17484C191.315 5.9616 191.026 5.8418 190.724 5.8418C190.423 5.8418 190.134 5.9616 189.92 6.17484C189.707 6.38808 189.587 6.6773 189.587 6.97887V10.3901H186.176C185.875 10.3901 185.585 10.5099 185.372 10.7231C185.159 10.9363 185.039 11.2255 185.039 11.5271C185.039 11.8287 185.159 12.1179 185.372 12.3311C185.585 12.5444 185.875 12.6642 186.176 12.6642H189.587V16.0754C189.587 16.3769 189.707 16.6662 189.92 16.8794C190.134 17.0926 190.423 17.2124 190.724 17.2124C191.026 17.2124 191.315 17.0926 191.528 16.8794C191.742 16.6662 191.861 16.3769 191.861 16.0754V12.6642H195.273C195.574 12.6642 195.863 12.5444 196.077 12.3311C196.29 12.1179 196.41 11.8287 196.41 11.5271C196.41 11.2256 196.29 10.9363 196.077 10.7231C195.863 10.5099 195.574 10.3901 195.273 10.3901V10.3901Z" fill="#28C7B7"/>
</g>
<defs>
<clipPath id="clip0">
<rect width="250" height="165.494" fill="white"/>
</clipPath>
</defs>
</svg>
