<svg width="250" height="131" viewBox="0 0 250 131" fill="none" xmlns="http://www.w3.org/2000/svg">
<g clip-path="url(#clip0)">
<path d="M232.958 127.314C232.636 128.147 232.234 128.949 231.759 129.706C231.627 129.915 231.488 130.121 231.341 130.321H219.09C219.004 130.256 218.921 130.189 218.835 130.124C218.404 130.09 217.977 130.047 217.559 130.001C217.602 129.964 217.648 129.927 217.691 129.891C217.469 129.909 217.248 129.927 217.027 129.937C217.202 129.958 217.38 129.98 217.559 130.001C217.426 130.109 217.291 130.217 217.153 130.321H216.618L216.977 129.937C216.691 129.946 216.408 129.952 216.123 129.946L217.017 129.706L217.983 129.448C218.02 129.478 218.06 129.509 218.097 129.54C219.745 128.092 221.085 126.327 222.037 124.35C222.989 122.374 223.534 120.226 223.64 118.035C223.745 115.843 223.409 113.653 222.651 111.594C221.894 109.535 220.729 107.65 219.228 106.05C221.645 107.671 223.714 109.757 225.316 112.186C226.919 114.615 228.022 117.339 228.561 120.198C228.838 121.596 228.88 123.03 228.684 124.442C228.792 124.322 228.899 124.202 229.004 124.079C230.561 122.192 231.684 119.985 232.292 117.615C232.9 115.245 232.978 112.771 232.522 110.367C233.714 113.022 234.367 115.887 234.442 118.797C234.517 121.706 234.013 124.601 232.958 127.314Z" fill="#BBBBBB"/>
<path d="M171.846 24.4667C176.615 24.4667 180.481 20.6006 180.481 15.8315C180.481 11.0624 176.615 7.19629 171.846 7.19629C167.077 7.19629 163.21 11.0624 163.21 15.8315C163.21 20.6006 167.077 24.4667 171.846 24.4667Z" fill="#2F2E41"/>
<path d="M199.848 126.722L196.078 126.722L194.285 112.181L199.849 112.181L199.848 126.722Z" fill="#FFB8B8"/>
<path d="M193.385 125.645H200.656V130.222H188.808C188.808 129.621 188.926 129.026 189.156 128.47C189.386 127.915 189.723 127.41 190.148 126.985C190.573 126.56 191.078 126.223 191.634 125.993C192.189 125.763 192.784 125.645 193.385 125.645Z" fill="#2F2E41"/>
<path d="M161.391 126.229L157.751 125.247L159.805 110.74L165.177 112.189L161.391 126.229Z" fill="#FFB8B8"/>
<path d="M155.432 123.506L162.452 125.399L161.26 129.819L149.82 126.734C150.136 125.562 150.905 124.563 151.957 123.958C153.01 123.353 154.259 123.19 155.432 123.506Z" fill="#2F2E41"/>
<path d="M168.535 59.4385L157.31 123.051L163.066 124.203L181.2 79.2995L194.729 123.915L201.637 123.051C201.637 123.051 198.471 59.1506 188.396 53.6816L168.535 59.4385Z" fill="#2F2E41"/>
<path d="M150.732 82.1958C151.137 81.9944 151.493 81.7067 151.774 81.353C152.056 80.9993 152.256 80.5882 152.362 80.1486C152.467 79.709 152.475 79.2517 152.384 78.8087C152.294 78.3658 152.107 77.9481 151.838 77.5851L158.029 68.5066L152.32 68.418L147.316 77.0527C146.736 77.5456 146.357 78.2341 146.251 78.9877C146.144 79.7414 146.318 80.5078 146.74 81.1418C147.161 81.7757 147.8 82.2332 148.536 82.4275C149.271 82.6217 150.053 82.5393 150.732 82.1958Z" fill="#FFB8B8"/>
<path d="M191.606 70.9693C192.01 70.7679 192.366 70.4802 192.648 70.1265C192.929 69.7728 193.13 69.3617 193.235 68.9221C193.341 68.4825 193.348 68.0251 193.258 67.5822C193.167 67.1393 192.981 66.7216 192.712 66.3585L198.903 57.28L193.193 57.1914L188.189 65.8261C187.609 66.319 187.23 67.0075 187.124 67.7612C187.018 68.5148 187.192 69.2813 187.613 69.9152C188.034 70.5492 188.673 71.0066 189.409 71.2009C190.145 71.3952 190.927 71.3128 191.606 70.9693V70.9693Z" fill="#FFB8B8"/>
<path d="M172.065 26.1755C176.236 26.1755 179.618 22.7941 179.618 18.6229C179.618 14.4517 176.236 11.0703 172.065 11.0703C167.894 11.0703 164.513 14.4517 164.513 18.6229C164.513 22.7941 167.894 26.1755 172.065 26.1755Z" fill="#FFB8B8"/>
<path d="M188.397 30.3666C188.109 29.2153 183.215 29.5031 183.215 29.5031C183.215 29.5031 177.705 28.2364 177.758 28.3948C173.114 28.0374 167.45 29.7806 166.625 30.0449C164.938 30.5106 161.713 31.9349 159.387 32.9826C159.064 33.1284 158.811 33.3962 158.683 33.7276C158.556 34.059 158.565 34.4273 158.707 34.7524L165.801 50.9473L166.809 61.4534L190.124 54.2574C184.367 51.9547 188.684 31.518 188.397 30.3666Z" fill="#28C7B7"/>
<path d="M186.381 30.6554L188.295 30.1748L198.758 50.8043L199.334 62.6059L192.714 57.4248V52.8193L185.806 43.8962L186.381 30.6554Z" fill="#28C7B7"/>
<path d="M161.195 32.2383L158.98 33.2231C158.864 33.2743 158.763 33.3532 158.686 33.4527C158.608 33.5522 158.556 33.6693 158.534 33.7937L154.143 58.8635L149.826 71.5285L155.583 74.4069L162.203 58.5757L164.506 47.0621L161.195 32.2383Z" fill="#28C7B7"/>
<path d="M164.145 15.0632C165.678 14.5599 167.295 15.3489 168.792 15.9496C170.268 16.5416 171.845 16.9682 173.432 16.875C175.02 16.7817 176.625 16.1114 177.585 14.8435C178.544 13.5757 178.713 11.6755 177.763 10.4004C177.138 9.56096 176.14 9.08201 175.141 8.77014C173.006 8.10378 170.616 8.08077 168.587 9.02086C166.558 9.96095 164.966 11.947 164.799 14.1772" fill="#2F2E41"/>
<path d="M171.615 9.04718C171.101 5.56131 173.01 1.94202 175.616 0.643676C178.222 -0.654666 181.28 0.111237 183.627 2.04463C185.975 3.97803 187.687 6.94907 188.96 10.1073C190.234 13.2656 191.116 16.6483 192.154 19.9421C193.076 22.8674 194.158 25.7945 195.909 28.0318C197.659 30.2691 200.205 31.7249 202.644 31.1102C200.64 33.8048 196.953 33.3382 194.666 31.0334C192.379 28.7286 191.19 25.1262 190.254 21.6196C189.318 18.113 188.504 14.444 186.693 11.5381C183.472 6.36857 177.151 4.81546 172.637 8.08444" fill="#2F2E41"/>
<path d="M250 129.706H0V130.321H250V129.706Z" fill="#3F3D56"/>
<path d="M131.162 70.6987H22.0531C21.1794 70.6977 20.3418 70.3502 19.724 69.7325C19.1063 69.1147 18.7588 68.2771 18.7578 67.4034V41.4076C18.7588 40.5339 19.1063 39.6963 19.724 39.0785C20.3418 38.4607 21.1794 38.1133 22.0531 38.1123H131.162C132.036 38.1133 132.874 38.4607 133.492 39.0785C134.109 39.6963 134.457 40.5339 134.458 41.4076V67.4034C134.457 68.2771 134.109 69.1147 133.492 69.7325C132.874 70.3502 132.036 70.6977 131.162 70.6987ZM22.0531 38.8446C21.3736 38.8454 20.7222 39.1157 20.2417 39.5962C19.7612 40.0766 19.4909 40.7281 19.4901 41.4076V67.4034C19.4909 68.0829 19.7612 68.7343 20.2417 69.2148C20.7222 69.6953 21.3736 69.9656 22.0531 69.9664H131.162C131.842 69.9656 132.493 69.6953 132.974 69.2148C133.454 68.7343 133.725 68.0829 133.725 67.4034V41.4076C133.725 40.7281 133.454 40.0766 132.974 39.5962C132.493 39.1157 131.842 38.8454 131.162 38.8446H22.0531Z" fill="#3F3D56"/>
<path d="M125.853 65.2069H27.3618C27.3137 65.207 27.2659 65.1977 27.2214 65.1793C27.1768 65.161 27.1363 65.134 27.1022 65.1C27.0681 65.066 27.0411 65.0256 27.0226 64.9811C27.0041 64.9366 26.9946 64.8889 26.9946 64.8407C26.9946 64.7926 27.0041 64.7449 27.0226 64.7004C27.0411 64.6559 27.0681 64.6155 27.1022 64.5815C27.1363 64.5475 27.1768 64.5205 27.2214 64.5022C27.2659 64.4838 27.3137 64.4745 27.3618 64.4746H125.853C125.901 64.4745 125.949 64.4838 125.994 64.5022C126.038 64.5205 126.079 64.5475 126.113 64.5815C126.147 64.6155 126.174 64.6559 126.192 64.7004C126.211 64.7449 126.22 64.7926 126.22 64.8407C126.22 64.8889 126.211 64.9366 126.192 64.9811C126.174 65.0256 126.147 65.066 126.113 65.1C126.079 65.134 126.038 65.161 125.994 65.1793C125.949 65.1977 125.901 65.207 125.853 65.2069Z" fill="#E6E6E6"/>
<path d="M37.7971 53.124H29.742C29.6451 53.1243 29.5523 53.163 29.4838 53.2317C29.4154 53.3003 29.377 53.3933 29.377 53.4902C29.377 53.5871 29.4154 53.6801 29.4838 53.7487C29.5523 53.8173 29.6451 53.856 29.742 53.8563H33.4034V60.3306C33.397 60.7999 33.5697 61.2539 33.8864 61.6003C34.2031 61.9466 34.64 62.1591 35.1079 62.1946C35.1308 62.1956 35.1544 62.196 35.1784 62.196C35.4662 62.1906 35.7484 62.1152 36.0005 61.9763C36.2526 61.8374 36.4671 61.6391 36.6254 61.3986C36.6835 61.321 36.7083 61.2234 36.6945 61.1274C36.6807 61.0314 36.6294 60.9448 36.5518 60.8866C36.4742 60.8285 36.3767 60.8035 36.2807 60.8171C36.1847 60.8308 36.098 60.882 36.0397 60.9596C35.9464 61.1147 35.8142 61.2428 35.6561 61.3311C35.4981 61.4194 35.3197 61.4649 35.1387 61.463C34.8589 61.437 34.5995 61.3055 34.4132 61.0952C34.2269 60.8849 34.1277 60.6115 34.1357 60.3306V53.8563H37.7971C37.8453 53.8564 37.893 53.8471 37.9375 53.8287C37.9821 53.8104 38.0226 53.7835 38.0567 53.7494C38.0908 53.7154 38.1179 53.675 38.1363 53.6305C38.1548 53.586 38.1643 53.5383 38.1643 53.4902C38.1643 53.442 38.1548 53.3943 38.1363 53.3498C38.1179 53.3053 38.0908 53.2649 38.0567 53.2309C38.0226 53.1969 37.9821 53.1699 37.9375 53.1516C37.893 53.1332 37.8453 53.1239 37.7971 53.124L37.7971 53.124Z" fill="#F9B2C8"/>
<path d="M65.2572 84.9783C66.8749 84.9783 68.1863 83.6669 68.1863 82.0492C68.1863 80.4315 66.8749 79.1201 65.2572 79.1201C63.6395 79.1201 62.3281 80.4315 62.3281 82.0492C62.3281 83.6669 63.6395 84.9783 65.2572 84.9783Z" fill="#E6E6E6"/>
<path d="M76.6078 84.9783C78.2255 84.9783 79.5369 83.6669 79.5369 82.0492C79.5369 80.4315 78.2255 79.1201 76.6078 79.1201C74.9901 79.1201 73.6787 80.4315 73.6787 82.0492C73.6787 83.6669 74.9901 84.9783 76.6078 84.9783Z" fill="#F9B2C8"/>
<path d="M87.9579 84.9783C89.5756 84.9783 90.887 83.6669 90.887 82.0492C90.887 80.4315 89.5756 79.1201 87.9579 79.1201C86.3402 79.1201 85.0288 80.4315 85.0288 82.0492C85.0288 83.6669 86.3402 84.9783 87.9579 84.9783Z" fill="#E6E6E6"/>
<path d="M39.5066 61.9225C39.6262 61.9184 39.7394 61.868 39.8226 61.7819C39.9057 61.6959 39.9521 61.5809 39.9521 61.4613C39.9521 61.3416 39.9057 61.2267 39.8226 61.1406C39.7394 61.0546 39.6262 61.0041 39.5066 61C39.387 61.0041 39.2737 61.0546 39.1906 61.1406C39.1075 61.2267 39.061 61.3416 39.061 61.4613C39.061 61.5809 39.1075 61.6959 39.1906 61.7819C39.2737 61.868 39.387 61.9184 39.5066 61.9225Z" fill="#F9B2C8"/>
<path d="M42.4358 61.9225C42.5554 61.9184 42.6686 61.868 42.7518 61.7819C42.8349 61.6959 42.8813 61.5809 42.8813 61.4613C42.8813 61.3416 42.8349 61.2267 42.7518 61.1406C42.6686 61.0546 42.5554 61.0041 42.4358 61C42.3162 61.0041 42.2029 61.0546 42.1198 61.1406C42.0367 61.2267 41.9902 61.3416 41.9902 61.4613C41.9902 61.5809 42.0367 61.6959 42.1198 61.7819C42.2029 61.868 42.3162 61.9184 42.4358 61.9225Z" fill="#F9B2C8"/>
<path d="M45.365 61.9225C45.4846 61.9184 45.5978 61.868 45.681 61.7819C45.7641 61.6959 45.8105 61.5809 45.8105 61.4613C45.8105 61.3416 45.7641 61.2267 45.681 61.1406C45.5978 61.0546 45.4846 61.0041 45.365 61C45.2454 61.0041 45.1321 61.0546 45.049 61.1406C44.9659 61.2267 44.9194 61.3416 44.9194 61.4613C44.9194 61.5809 44.9659 61.6959 45.049 61.7819C45.1321 61.868 45.2454 61.9184 45.365 61.9225Z" fill="#F9B2C8"/>
</g>
<defs>
<clipPath id="clip0">
<rect width="250" height="130.321" fill="white"/>
</clipPath>
</defs>
</svg>
