<svg width="21" height="20" viewBox="0 0 21 20" fill="none" xmlns="http://www.w3.org/2000/svg">
	<path d="M20.1519 17.2913L16.1734 13.3971C15.9938 13.2214 15.7504 13.1237 15.495 13.1237H14.8446C15.946 11.7449 16.6004 10.0107 16.6004 8.12421C16.6004 3.63636 12.8853 0 8.3002 0C3.71514 0 0 3.63636 0 8.12421C0 12.6121 3.71514 16.2484 8.3002 16.2484C10.2276 16.2484 11.9994 15.6079 13.408 14.5298V15.1665C13.408 15.4165 13.5078 15.6547 13.6873 15.8305L17.6659 19.7246C18.041 20.0918 18.6475 20.0918 19.0186 19.7246L20.1479 18.6193C20.523 18.2521 20.523 17.6584 20.1519 17.2913ZM8.3002 13.1237C5.47893 13.1237 3.19238 10.8896 3.19238 8.12421C3.19238 5.36276 5.47494 3.1247 8.3002 3.1247C11.1215 3.1247 13.408 5.35885 13.408 8.12421C13.408 10.8857 11.1255 13.1237 8.3002 13.1237Z" fill="#A8B6C6" />
</svg>
